<svg width="109" height="107" viewBox="0 0 109 107" fill="none" xmlns="http://www.w3.org/2000/svg">
<rect x="2.49035" y="18.4677" width="55.603" height="89.8304" rx="17" transform="rotate(-16.6992 2.49035 18.4677)" fill="white" stroke="black" stroke-width="4"/>
<path d="M11.9831 34.4796L12.2568 30.6408C12.4551 27.8586 16.0109 26.8292 17.6649 29.0752L19.8965 32.1056" stroke="black" stroke-width="5" stroke-linecap="round"/>
<path d="M71.5594 70.8247L71.343 74.7923C71.1885 77.6261 67.55 78.6809 65.9038 76.3691L63.6461 73.1987" stroke="black" stroke-width="10" stroke-linecap="round"/>
<path d="M27.2242 56.5275C24.4861 45.7879 32.7832 46.066 37.6156 46.642C38.4683 46.7437 39.3217 46.4888 39.9703 45.9261C43.6281 42.7526 50.0713 37.7806 53.6962 48.2511C54.0725 49.3382 53.771 53.5206 53.0506 54.9742C50.7702 59.5753 45.9404 65.1843 46.0024 70.2193C46.0031 70.28 45.9789 70.3382 45.9348 70.3799C45.8366 70.4728 45.6783 70.4528 45.6023 70.3409C42.5368 65.8313 33.6684 64.3181 29.92 61.0762C29.1391 60.4008 27.4266 57.3215 27.2242 56.5275Z" fill="#00FFFF" stroke="black" stroke-width="5" stroke-linecap="round"/>
<rect x="52" y="8" width="55" height="90" rx="17" fill="white" stroke="black" stroke-width="4"/>
<path d="M56.4257 26.1006L57.7436 22.5852C58.7268 19.9627 62.4488 19.9984 63.3815 22.6393L64.6039 26.1006" stroke="black" stroke-width="5" stroke-linecap="round"/>
<path d="M102.574 78.1258L101.274 81.777C100.318 84.4611 96.5099 84.426 95.6036 81.7248L94.3961 78.1258" stroke="black" stroke-width="5" stroke-linecap="round"/>
<path d="M64.6051 51.6442C65.0629 40.5721 72.8216 43.196 77.2439 45.1387C78.0387 45.4878 78.9408 45.489 79.7309 45.1292C84.1053 43.1373 91.6005 40.2538 92.0583 51.3229C92.1059 52.4744 90.6303 56.4009 89.5338 57.5883C86.0626 61.3472 79.887 65.3395 78.5144 70.1894C78.4982 70.2469 78.4591 70.2951 78.4058 70.3222C78.2863 70.3831 78.1412 70.3189 78.1014 70.1909C76.4786 64.9805 68.4993 60.9752 65.8673 56.785C65.3189 55.9121 64.5711 52.4644 64.6051 51.6442Z" fill="#FF7D97" stroke="black" stroke-width="5" stroke-linecap="round"/>
</svg>
