<svg width="105" height="85" viewBox="0 0 105 85" fill="none" xmlns="http://www.w3.org/2000/svg">
<g clip-path="url(#clip0_112_95)">
<rect x="71.7588" y="16.3285" width="34.9535" height="56.7485" rx="17.4767" transform="rotate(30 71.7588 16.3285)" fill="white" stroke="black" stroke-width="3"/>
<path d="M68.4013 27.4109V27.4109C70.4131 25.7688 73.4231 27.4866 72.9574 30.0414V30.0414" stroke="black" stroke-width="3" stroke-linecap="round"/>
<path d="M77.5763 70.8922V70.8922C75.5686 72.5875 72.5078 70.839 73.0202 68.2617V68.2617" stroke="black" stroke-width="3" stroke-linecap="round"/>
<path d="M64.8399 44.1026C68.4283 38.4474 71.7586 41.7314 73.6645 44.21C74.1879 44.8908 74.9529 45.3337 75.806 45.4318C78.8902 45.7866 83.3376 46.824 80.2361 52.7558C79.8966 53.405 77.8267 55.0917 76.8385 55.3927C73.7104 56.3453 69.0018 56.5566 66.6956 58.7842C66.6678 58.811 66.6303 58.8253 66.5917 58.823C66.5057 58.8181 66.4459 58.736 66.4645 58.6519C67.2156 55.2619 64.0439 50.4913 63.9093 47.3384C63.8812 46.6815 64.5603 44.5431 64.8399 44.1026Z" fill="#00FFE0" stroke="black" stroke-width="4" stroke-linecap="round"/>
</g>
<g clip-path="url(#clip1_112_95)">
<rect x="2.04904" y="19.5258" width="34.9535" height="56.7485" rx="17.4767" transform="rotate(-30 2.04904 19.5258)" fill="white" stroke="black" stroke-width="3"/>
<path d="M9.96795 27.9747V27.9747C9.55173 25.4113 12.5443 23.6635 14.524 25.3442V25.3442" stroke="black" stroke-width="3" stroke-linecap="round"/>
<path d="M52.2113 41.7695V41.7695C52.6757 44.3559 49.6311 46.1323 47.6553 44.3999V44.3999" stroke="black" stroke-width="10" stroke-linecap="round"/>
<path d="M22.6427 39.4047C19.5393 33.4695 24.0485 32.2274 27.148 31.8161C27.9993 31.7032 28.7653 31.2621 29.2769 30.5724C31.1262 28.0788 34.2483 24.7459 37.8346 30.3978C38.2271 31.0164 38.653 33.6524 38.4195 34.6586C37.6804 37.844 35.5091 42.0274 36.2852 45.1384C36.2945 45.1759 36.2881 45.2155 36.2668 45.2478C36.2196 45.3198 36.1185 45.3306 36.055 45.2724C33.4948 42.9269 27.7774 43.2884 24.9797 41.8286C24.3968 41.5244 22.8844 39.8671 22.6427 39.4047Z" fill="#FAFF00" stroke="black" stroke-width="4" stroke-linecap="round"/>
</g>
<g clip-path="url(#clip2_112_95)">
<rect x="31.5" y="11.5" width="35" height="56" rx="17.5" fill="white" stroke="black" stroke-width="3"/>
<path d="M34.1387 22.6163V22.6163C35.0692 20.1974 38.5229 20.1797 39.406 22.6163V22.6163" stroke="black" stroke-width="3" stroke-linecap="round"/>
<path d="M63.8613 55.2704V55.2704C62.9611 57.7337 59.4478 57.7502 58.594 55.2704V55.2704" stroke="black" stroke-width="3" stroke-linecap="round"/>
<path d="M39.4066 38.649C39.6875 32.029 44.2353 33.2095 47.128 34.3904C47.913 34.7109 48.7855 34.7119 49.5649 34.3781C52.4164 33.1568 56.8076 31.8312 57.0883 38.4474C57.119 39.1701 56.1686 41.6346 55.4624 42.3799C53.2272 44.7387 49.2509 47.2439 48.3658 50.2871C48.3549 50.3244 48.3292 50.3556 48.2943 50.3729C48.2173 50.4111 48.1247 50.37 48.0985 50.2881C47.052 47.0187 41.9145 44.5052 40.2196 41.8757C39.8664 41.3278 39.3848 39.1638 39.4066 38.649Z" fill="#FF7DF2" stroke="black" stroke-width="4" stroke-linecap="round"/>
</g>
<defs>
<clipPath id="clip0_112_95">
<rect width="37.9535" height="59.7485" fill="white" transform="translate(71.2097 14.2795) rotate(30)"/>
</clipPath>
<clipPath id="clip1_112_95">
<rect width="37.9535" height="59.7485" fill="white" transform="translate(0 18.9767) rotate(-30)"/>
</clipPath>
<clipPath id="clip2_112_95">
<rect width="38" height="59" fill="white" transform="translate(30 9.99998)"/>
</clipPath>
</defs>
</svg>
